# xmcd CD database file
#
# Track frame offsets:
#	150
#	4422
#	21662
#	38840
#	55225
#	69237
#	85347
#	103705
#	118990
#	136400
#	151200
#	171100
#	188520
#	210252
#	228552
#
# Disc length: 3313 seconds
#
# Revision: 4
# Processed by: cddbd v1.5.2PL0 Copyright (c) Steve Scherf et al.
# Submitted via: CDex 1.51
#
DISCID=c80cef0f
DTITLE=Chris Brown - Chris Brown
DYEAR=2005
DGENRE=R&B
TTITLE0=Intro
TTITLE1=Run It! (With Juelz Santana)
TTITLE2=Yo (Excuse Me Miss)
TTITLE3=Young Love
TTITLE4=Gimme That
TTITLE5=Ya Man Ain't Me
TTITLE6=Winner
TTITLE7=Ain't No Way (You Won't Love Me)
TTITLE8=What's My Name (With Noah)
TTITLE9=Is This Love?
TTITLE10=Poppin'
TTITLE11=Just Fine
TTITLE12=Say Goodbye
TTITLE13=Run It! (Remix) (With Bow Wow and Jermaine Dupri)
TTITLE14=Thank You
EXTD=YEAR: 2005
EXTT0=
EXTT1=
EXTT2=
EXTT3=
EXTT4=
EXTT5=
EXTT6=
EXTT7=
EXTT8=
EXTT9=
EXTT10=
EXTT11=
EXTT12=
EXTT13=
EXTT14=
PLAYORDER=
